<svg width="219" height="51" viewBox="0 0 219 51" fill="none" xmlns="http://www.w3.org/2000/svg">
<path d="M45.6715 25.0192V15.5558L25.8789 5.91187V24.9266L38.8534 32.0249L32.1302 35.5733V31.9323L25.8789 28.5676V44.9441L45.6715 35.3002V28.3855L32.1302 21.9243V15.3737L39.6114 18.74V21.9243L45.6715 25.0192Z" fill="#EB1E19"/>
<path d="M0 38.5869V12.9976V12.4147L25 0.5L50 12.4147V38.5869L25 50.5L0 38.5869ZM1.95466 37.4227L25 48.4048L48.0453 37.4227V13.5789L25 2.59678L1.95466 13.5789V37.4227Z" fill="#0F0E1B"/>
<path d="M4.10059 24.9362V15.4743L23.8932 5.82886V24.8451L10.917 31.9419L17.6419 35.4919V31.8509L23.8932 28.4846V44.8627L4.10059 35.2188V28.3025L17.6419 21.8429V15.2907L10.1607 18.6586V21.8429L4.10059 24.9362Z" fill="#EB6619"/>
<path d="M89.5455 19.5455C89.4091 18.3939 88.8561 17.5 87.8864 16.8636C86.9167 16.2273 85.7273 15.9091 84.3182 15.9091C83.2879 15.9091 82.3864 16.0758 81.6136 16.4091C80.8485 16.7424 80.25 17.2008 79.8182 17.7841C79.3939 18.3674 79.1818 19.0303 79.1818 19.7727C79.1818 20.3939 79.3295 20.928 79.625 21.375C79.928 21.8144 80.3144 22.1818 80.7841 22.4773C81.2538 22.7652 81.7462 23.0038 82.2614 23.1932C82.7765 23.375 83.25 23.5227 83.6818 23.6364L86.0455 24.2727C86.6515 24.4318 87.3258 24.6515 88.0682 24.9318C88.8182 25.2121 89.5341 25.5947 90.2159 26.0795C90.9053 26.5568 91.4735 27.1705 91.9205 27.9205C92.3674 28.6705 92.5909 29.5909 92.5909 30.6818C92.5909 31.9394 92.2614 33.0758 91.6023 34.0909C90.9508 35.1061 89.9962 35.9129 88.7386 36.5114C87.4886 37.1098 85.9697 37.4091 84.1818 37.4091C82.5152 37.4091 81.072 37.1402 79.8523 36.6023C78.6402 36.0644 77.6856 35.3144 76.9886 34.3523C76.2992 33.3902 75.9091 32.2727 75.8182 31H78.7273C78.803 31.8788 79.0985 32.6061 79.6136 33.1818C80.1364 33.75 80.7955 34.1742 81.5909 34.4545C82.3939 34.7273 83.2576 34.8636 84.1818 34.8636C85.2576 34.8636 86.2235 34.6894 87.0795 34.3409C87.9356 33.9848 88.6136 33.4924 89.1136 32.8636C89.6136 32.2273 89.8636 31.4848 89.8636 30.6364C89.8636 29.8636 89.6477 29.2348 89.2159 28.75C88.7841 28.2652 88.2159 27.8712 87.5114 27.5682C86.8068 27.2652 86.0455 27 85.2273 26.7727L82.3636 25.9545C80.5455 25.4318 79.1061 24.6856 78.0455 23.7159C76.9848 22.7462 76.4545 21.4773 76.4545 19.9091C76.4545 18.6061 76.8068 17.4697 77.5114 16.5C78.2235 15.5227 79.178 14.7652 80.375 14.2273C81.5795 13.6818 82.9242 13.4091 84.4091 13.4091C85.9091 13.4091 87.2424 13.678 88.4091 14.2159C89.5758 14.7462 90.5 15.4735 91.1818 16.3977C91.8712 17.322 92.2348 18.3712 92.2727 19.5455H89.5455ZM109.952 19.5455C109.815 18.3939 109.262 17.5 108.293 16.8636C107.323 16.2273 106.134 15.9091 104.724 15.9091C103.694 15.9091 102.793 16.0758 102.02 16.4091C101.255 16.7424 100.656 17.2008 100.224 17.7841C99.8002 18.3674 99.5881 19.0303 99.5881 19.7727C99.5881 20.3939 99.7358 20.928 100.031 21.375C100.334 21.8144 100.721 22.1818 101.19 22.4773C101.66 22.7652 102.152 23.0038 102.668 23.1932C103.183 23.375 103.656 23.5227 104.088 23.6364L106.452 24.2727C107.058 24.4318 107.732 24.6515 108.474 24.9318C109.224 25.2121 109.94 25.5947 110.622 26.0795C111.312 26.5568 111.88 27.1705 112.327 27.9205C112.774 28.6705 112.997 29.5909 112.997 30.6818C112.997 31.9394 112.668 33.0758 112.009 34.0909C111.357 35.1061 110.402 35.9129 109.145 36.5114C107.895 37.1098 106.376 37.4091 104.588 37.4091C102.921 37.4091 101.478 37.1402 100.259 36.6023C99.0464 36.0644 98.0919 35.3144 97.3949 34.3523C96.7055 33.3902 96.3153 32.2727 96.2244 31H99.1335C99.2093 31.8788 99.5047 32.6061 100.02 33.1818C100.543 33.75 101.202 34.1742 101.997 34.4545C102.8 34.7273 103.664 34.8636 104.588 34.8636C105.664 34.8636 106.63 34.6894 107.486 34.3409C108.342 33.9848 109.02 33.4924 109.52 32.8636C110.02 32.2273 110.27 31.4848 110.27 30.6364C110.27 29.8636 110.054 29.2348 109.622 28.75C109.19 28.2652 108.622 27.8712 107.918 27.5682C107.213 27.2652 106.452 27 105.634 26.7727L102.77 25.9545C100.952 25.4318 99.5123 24.6856 98.4517 23.7159C97.3911 22.7462 96.8608 21.4773 96.8608 19.9091C96.8608 18.6061 97.2131 17.4697 97.9176 16.5C98.6297 15.5227 99.5843 14.7652 100.781 14.2273C101.986 13.6818 103.33 13.4091 104.815 13.4091C106.315 13.4091 107.649 13.678 108.815 14.2159C109.982 14.7462 110.906 15.4735 111.588 16.3977C112.277 17.322 112.641 18.3712 112.679 19.5455H109.952ZM117.631 37V13.7273H131.676V16.2273H120.449V24.0909H130.949V26.5909H120.449V34.5H131.858V37H117.631ZM143.938 37H136.756V13.7273H144.256C146.513 13.7273 148.445 14.1932 150.051 15.125C151.657 16.0492 152.888 17.3788 153.744 19.1136C154.6 20.8409 155.028 22.9091 155.028 25.3182C155.028 27.7424 154.597 29.8295 153.733 31.5795C152.869 33.322 151.612 34.6629 149.96 35.6023C148.309 36.5341 146.301 37 143.938 37ZM139.574 34.5H143.756C145.68 34.5 147.275 34.1288 148.54 33.3864C149.805 32.6439 150.748 31.5871 151.369 30.2159C151.991 28.8447 152.301 27.2121 152.301 25.3182C152.301 23.4394 151.994 21.822 151.381 20.4659C150.767 19.1023 149.85 18.0568 148.631 17.3295C147.411 16.5947 145.892 16.2273 144.074 16.2273H139.574V34.5ZM159.756 37V13.7273H162.574V34.5H173.392V37H159.756ZM180.179 37H177.224L185.77 13.7273H188.679L197.224 37H194.27L187.315 17.4091H187.134L180.179 37ZM181.27 27.9091H193.179V30.4091H181.27V27.9091ZM200.849 37V13.7273H208.986C210.607 13.7273 211.944 14.0076 212.997 14.5682C214.05 15.1212 214.834 15.8674 215.349 16.8068C215.865 17.7386 216.122 18.7727 216.122 19.9091C216.122 20.9091 215.944 21.7348 215.588 22.3864C215.24 23.0379 214.777 23.553 214.202 23.9318C213.634 24.3106 213.016 24.5909 212.349 24.7727V25C213.062 25.0455 213.777 25.2955 214.497 25.75C215.217 26.2045 215.819 26.8561 216.304 27.7045C216.789 28.553 217.031 29.5909 217.031 30.8182C217.031 31.9848 216.766 33.0341 216.236 33.9659C215.705 34.8977 214.868 35.6364 213.724 36.1818C212.58 36.7273 211.092 37 209.259 37H200.849ZM203.668 34.5H209.259C211.099 34.5 212.406 34.1439 213.179 33.4318C213.959 32.7121 214.349 31.8409 214.349 30.8182C214.349 30.0303 214.149 29.303 213.747 28.6364C213.346 27.9621 212.774 27.4242 212.031 27.0227C211.289 26.6136 210.41 26.4091 209.395 26.4091H203.668V34.5ZM203.668 23.9545H208.895C209.743 23.9545 210.509 23.7879 211.19 23.4545C211.88 23.1212 212.425 22.6515 212.827 22.0455C213.236 21.4394 213.44 20.7273 213.44 19.9091C213.44 18.8864 213.084 18.0189 212.372 17.3068C211.66 16.5871 210.531 16.2273 208.986 16.2273H203.668V23.9545Z" fill="white"/>
</svg>
