<svg width="133" height="22" viewBox="0 0 133 22" fill="none" xmlns="http://www.w3.org/2000/svg">
<path d="M2.70455 4.86364L5.73295 14.0227H5.85227L8.875 4.86364H11.1932L7.09091 16.5H4.48864L0.392045 4.86364H2.70455ZM12.1349 16.5V7.77273H14.1918V16.5H12.1349ZM13.169 6.53409C12.8433 6.53409 12.563 6.42614 12.3281 6.21023C12.0933 5.99053 11.9759 5.72727 11.9759 5.42045C11.9759 5.10985 12.0933 4.84659 12.3281 4.63068C12.563 4.41098 12.8433 4.30114 13.169 4.30114C13.4986 4.30114 13.7789 4.41098 14.0099 4.63068C14.2448 4.84659 14.3622 5.10985 14.3622 5.42045C14.3622 5.72727 14.2448 5.99053 14.0099 6.21023C13.7789 6.42614 13.4986 6.53409 13.169 6.53409ZM19.6705 16.6705C18.7955 16.6705 18.0398 16.4886 17.4034 16.125C16.7708 15.7576 16.2841 15.2386 15.9432 14.5682C15.6023 13.8939 15.4318 13.1004 15.4318 12.1875C15.4318 11.2898 15.6023 10.5019 15.9432 9.82386C16.2879 9.14205 16.7689 8.61174 17.3864 8.23295C18.0038 7.85038 18.7292 7.65909 19.5625 7.65909C20.1004 7.65909 20.608 7.74621 21.0852 7.92045C21.5663 8.09091 21.9905 8.35606 22.358 8.71591C22.7292 9.07576 23.0208 9.53409 23.233 10.0909C23.4451 10.6439 23.5511 11.303 23.5511 12.0682V12.6989H16.3977V11.3125H21.5795C21.5758 10.9186 21.4905 10.5682 21.3239 10.2614C21.1572 9.95076 20.9242 9.70644 20.625 9.52841C20.3295 9.35038 19.9848 9.26136 19.5909 9.26136C19.1705 9.26136 18.8011 9.36364 18.483 9.56818C18.1648 9.76894 17.9167 10.0341 17.7386 10.3636C17.5644 10.6894 17.4754 11.0473 17.4716 11.4375V12.6477C17.4716 13.1553 17.5644 13.5909 17.75 13.9545C17.9356 14.3144 18.1951 14.5909 18.5284 14.7841C18.8617 14.9735 19.2519 15.0682 19.6989 15.0682C19.9981 15.0682 20.2689 15.0265 20.5114 14.9432C20.7538 14.8561 20.964 14.7292 21.142 14.5625C21.3201 14.3958 21.4545 14.1894 21.5455 13.9432L23.4659 14.1591C23.3447 14.6667 23.1136 15.1098 22.7727 15.4886C22.4356 15.8636 22.0038 16.1553 21.4773 16.3636C20.9508 16.5682 20.3485 16.6705 19.6705 16.6705ZM26.5455 16.5L24.0795 7.77273H26.1761L27.7102 13.9091H27.7898L29.358 7.77273H31.4318L33 13.875H33.0852L34.5966 7.77273H36.6989L34.2273 16.5H32.0852L30.4489 10.6023H30.3295L28.6932 16.5H26.5455ZM43.6151 16.6761C43.062 16.6761 42.5639 16.5777 42.1207 16.3807C41.6813 16.1799 41.3329 15.8845 41.0753 15.4943C40.8215 15.1042 40.6946 14.6231 40.6946 14.0511C40.6946 13.5587 40.7855 13.1515 40.9673 12.8295C41.1491 12.5076 41.3973 12.25 41.7116 12.0568C42.026 11.8636 42.3802 11.7178 42.7741 11.6193C43.1719 11.517 43.5829 11.4432 44.0071 11.3977C44.5185 11.3447 44.9332 11.2973 45.2514 11.2557C45.5696 11.2102 45.8007 11.142 45.9446 11.0511C46.0923 10.9564 46.1662 10.8106 46.1662 10.6136V10.5795C46.1662 10.1515 46.0393 9.82008 45.7855 9.58523C45.5317 9.35038 45.1662 9.23295 44.6889 9.23295C44.1851 9.23295 43.7855 9.3428 43.4901 9.5625C43.1984 9.7822 43.0014 10.0417 42.8991 10.3409L40.9787 10.0682C41.1302 9.53788 41.3802 9.0947 41.7287 8.73864C42.0772 8.37879 42.5033 8.10985 43.0071 7.93182C43.5109 7.75 44.0677 7.65909 44.6776 7.65909C45.098 7.65909 45.5166 7.70833 45.9332 7.80682C46.3499 7.9053 46.7306 8.06818 47.0753 8.29545C47.42 8.51894 47.6965 8.82386 47.9048 9.21023C48.117 9.59659 48.223 10.0795 48.223 10.6591V16.5H46.2457V15.3011H46.1776C46.0526 15.5436 45.8764 15.7708 45.6491 15.983C45.4257 16.1913 45.1435 16.3598 44.8026 16.4886C44.4654 16.6136 44.0696 16.6761 43.6151 16.6761ZM44.1491 15.1648C44.562 15.1648 44.92 15.0833 45.223 14.9205C45.526 14.7538 45.759 14.5341 45.9219 14.2614C46.0885 13.9886 46.1719 13.6913 46.1719 13.3693V12.3409C46.1075 12.3939 45.9976 12.4432 45.8423 12.4886C45.6908 12.5341 45.5204 12.5739 45.331 12.608C45.1416 12.642 44.9541 12.6723 44.7685 12.6989C44.5829 12.7254 44.4219 12.7481 44.2855 12.767C43.9787 12.8087 43.7041 12.8769 43.4616 12.9716C43.2192 13.0663 43.0279 13.1989 42.8878 13.3693C42.7476 13.536 42.6776 13.7519 42.6776 14.017C42.6776 14.3958 42.8158 14.6818 43.0923 14.875C43.3688 15.0682 43.7211 15.1648 44.1491 15.1648ZM51.848 4.86364V16.5H49.7912V4.86364H51.848ZM55.5199 4.86364V16.5H53.4631V4.86364H55.5199ZM64.4105 16.6705C63.5393 16.6705 62.7912 16.4792 62.1662 16.0966C61.545 15.714 61.0658 15.1856 60.7287 14.5114C60.3954 13.8333 60.2287 13.053 60.2287 12.1705C60.2287 11.2841 60.3991 10.5019 60.7401 9.82386C61.081 9.14205 61.562 8.61174 62.1832 8.23295C62.8082 7.85038 63.5469 7.65909 64.3991 7.65909C65.1075 7.65909 65.7344 7.78977 66.2798 8.05114C66.8291 8.30871 67.2666 8.67424 67.5923 9.14773C67.9181 9.61742 68.1037 10.1667 68.1491 10.7955H66.1832C66.1037 10.375 65.9143 10.0246 65.6151 9.74432C65.3196 9.46023 64.9238 9.31818 64.4276 9.31818C64.0071 9.31818 63.6378 9.43182 63.3196 9.65909C63.0014 9.88258 62.7533 10.2045 62.5753 10.625C62.401 11.0455 62.3139 11.5492 62.3139 12.1364C62.3139 12.7311 62.401 13.2424 62.5753 13.6705C62.7495 14.0947 62.9938 14.4223 63.3082 14.6534C63.6264 14.8807 63.9995 14.9943 64.4276 14.9943C64.7306 14.9943 65.0014 14.9375 65.2401 14.8239C65.4825 14.7064 65.6851 14.5379 65.848 14.3182C66.0109 14.0985 66.1226 13.8314 66.1832 13.517H68.1491C68.0999 14.1345 67.9181 14.6818 67.6037 15.1591C67.2893 15.6326 66.8613 16.0038 66.3196 16.2727C65.7779 16.5379 65.1416 16.6705 64.4105 16.6705ZM71.8494 16.6761C71.2964 16.6761 70.7983 16.5777 70.3551 16.3807C69.9157 16.1799 69.5672 15.8845 69.3097 15.4943C69.0559 15.1042 68.929 14.6231 68.929 14.0511C68.929 13.5587 69.0199 13.1515 69.2017 12.8295C69.3835 12.5076 69.6316 12.25 69.946 12.0568C70.2604 11.8636 70.6146 11.7178 71.0085 11.6193C71.4063 11.517 71.8172 11.4432 72.2415 11.3977C72.7528 11.3447 73.1676 11.2973 73.4858 11.2557C73.804 11.2102 74.035 11.142 74.179 11.0511C74.3267 10.9564 74.4006 10.8106 74.4006 10.6136V10.5795C74.4006 10.1515 74.2737 9.82008 74.0199 9.58523C73.7661 9.35038 73.4006 9.23295 72.9233 9.23295C72.4195 9.23295 72.0199 9.3428 71.7244 9.5625C71.4328 9.7822 71.2358 10.0417 71.1335 10.3409L69.2131 10.0682C69.3646 9.53788 69.6146 9.0947 69.9631 8.73864C70.3116 8.37879 70.7377 8.10985 71.2415 7.93182C71.7453 7.75 72.3021 7.65909 72.9119 7.65909C73.3324 7.65909 73.7509 7.70833 74.1676 7.80682C74.5843 7.9053 74.965 8.06818 75.3097 8.29545C75.6544 8.51894 75.9309 8.82386 76.1392 9.21023C76.3513 9.59659 76.4574 10.0795 76.4574 10.6591V16.5H74.4801V15.3011H74.4119C74.2869 15.5436 74.1108 15.7708 73.8835 15.983C73.66 16.1913 73.3778 16.3598 73.0369 16.4886C72.6998 16.6136 72.304 16.6761 71.8494 16.6761ZM72.3835 15.1648C72.7964 15.1648 73.1544 15.0833 73.4574 14.9205C73.7604 14.7538 73.9934 14.5341 74.1562 14.2614C74.3229 13.9886 74.4062 13.6913 74.4062 13.3693V12.3409C74.3419 12.3939 74.232 12.4432 74.0767 12.4886C73.9252 12.5341 73.7547 12.5739 73.5653 12.608C73.3759 12.642 73.1884 12.6723 73.0028 12.6989C72.8172 12.7254 72.6563 12.7481 72.5199 12.767C72.2131 12.8087 71.9384 12.8769 71.696 12.9716C71.4536 13.0663 71.2623 13.1989 71.1222 13.3693C70.982 13.536 70.9119 13.7519 70.9119 14.017C70.9119 14.3958 71.0502 14.6818 71.3267 14.875C71.6032 15.0682 71.9555 15.1648 72.3835 15.1648ZM84.9233 10.0795L83.0483 10.2841C82.9953 10.0947 82.9025 9.91667 82.7699 9.75C82.6411 9.58333 82.4669 9.44886 82.2472 9.34659C82.0275 9.24432 81.7585 9.19318 81.4403 9.19318C81.0123 9.19318 80.6525 9.28598 80.3608 9.47159C80.0729 9.6572 79.9309 9.89773 79.9347 10.1932C79.9309 10.447 80.0237 10.6534 80.2131 10.8125C80.4063 10.9716 80.7244 11.1023 81.1676 11.2045L82.6562 11.5227C83.482 11.7008 84.0956 11.983 84.4972 12.3693C84.9025 12.7557 85.107 13.2614 85.1108 13.8864C85.107 14.4356 84.946 14.9205 84.6278 15.3409C84.3134 15.7576 83.8759 16.0833 83.3153 16.3182C82.7547 16.553 82.1108 16.6705 81.3835 16.6705C80.3153 16.6705 79.4555 16.447 78.804 16C78.1525 15.5492 77.7642 14.9223 77.6392 14.1193L79.6449 13.9261C79.7358 14.3201 79.929 14.6174 80.2244 14.8182C80.5199 15.0189 80.9044 15.1193 81.3778 15.1193C81.8665 15.1193 82.2585 15.0189 82.554 14.8182C82.8532 14.6174 83.0028 14.3693 83.0028 14.0739C83.0028 13.8239 82.9063 13.6174 82.7131 13.4545C82.5237 13.2917 82.2282 13.1667 81.8267 13.0795L80.3381 12.767C79.5009 12.5928 78.8816 12.2992 78.4801 11.8864C78.0786 11.4697 77.8797 10.9432 77.8835 10.3068C77.8797 9.76894 78.0256 9.30303 78.321 8.90909C78.6203 8.51136 79.035 8.20455 79.5653 7.98864C80.0994 7.76894 80.715 7.65909 81.4119 7.65909C82.4347 7.65909 83.2396 7.87689 83.8267 8.3125C84.4176 8.74811 84.7831 9.33712 84.9233 10.0795ZM90.1705 16.6705C89.2955 16.6705 88.5398 16.4886 87.9034 16.125C87.2708 15.7576 86.7841 15.2386 86.4432 14.5682C86.1023 13.8939 85.9318 13.1004 85.9318 12.1875C85.9318 11.2898 86.1023 10.5019 86.4432 9.82386C86.7879 9.14205 87.2689 8.61174 87.8864 8.23295C88.5038 7.85038 89.2292 7.65909 90.0625 7.65909C90.6004 7.65909 91.108 7.74621 91.5852 7.92045C92.0663 8.09091 92.4905 8.35606 92.858 8.71591C93.2292 9.07576 93.5208 9.53409 93.733 10.0909C93.9451 10.6439 94.0511 11.303 94.0511 12.0682V12.6989H86.8977V11.3125H92.0795C92.0758 10.9186 91.9905 10.5682 91.8239 10.2614C91.6572 9.95076 91.4242 9.70644 91.125 9.52841C90.8295 9.35038 90.4848 9.26136 90.0909 9.26136C89.6705 9.26136 89.3011 9.36364 88.983 9.56818C88.6648 9.76894 88.4167 10.0341 88.2386 10.3636C88.0644 10.6894 87.9754 11.0473 87.9716 11.4375V12.6477C87.9716 13.1553 88.0644 13.5909 88.25 13.9545C88.4356 14.3144 88.6951 14.5909 89.0284 14.7841C89.3617 14.9735 89.7519 15.0682 90.1989 15.0682C90.4981 15.0682 90.7689 15.0265 91.0114 14.9432C91.2538 14.8561 91.464 14.7292 91.642 14.5625C91.8201 14.3958 91.9545 14.1894 92.0455 13.9432L93.9659 14.1591C93.8447 14.6667 93.6136 15.1098 93.2727 15.4886C92.9356 15.8636 92.5038 16.1553 91.9773 16.3636C91.4508 16.5682 90.8485 16.6705 90.1705 16.6705ZM102.189 10.0795L100.314 10.2841C100.261 10.0947 100.168 9.91667 100.036 9.75C99.9067 9.58333 99.7325 9.44886 99.5128 9.34659C99.2931 9.24432 99.0241 9.19318 98.706 9.19318C98.2779 9.19318 97.9181 9.28598 97.6264 9.47159C97.3385 9.6572 97.1965 9.89773 97.2003 10.1932C97.1965 10.447 97.2893 10.6534 97.4787 10.8125C97.6719 10.9716 97.9901 11.1023 98.4332 11.2045L99.9219 11.5227C100.748 11.7008 101.361 11.983 101.763 12.3693C102.168 12.7557 102.373 13.2614 102.376 13.8864C102.373 14.4356 102.212 14.9205 101.893 15.3409C101.579 15.7576 101.142 16.0833 100.581 16.3182C100.02 16.553 99.3764 16.6705 98.6491 16.6705C97.581 16.6705 96.7211 16.447 96.0696 16C95.4181 15.5492 95.0298 14.9223 94.9048 14.1193L96.9105 13.9261C97.0014 14.3201 97.1946 14.6174 97.4901 14.8182C97.7855 15.0189 98.17 15.1193 98.6435 15.1193C99.1321 15.1193 99.5241 15.0189 99.8196 14.8182C100.119 14.6174 100.268 14.3693 100.268 14.0739C100.268 13.8239 100.172 13.6174 99.9787 13.4545C99.7893 13.2917 99.4938 13.1667 99.0923 13.0795L97.6037 12.767C96.7666 12.5928 96.1473 12.2992 95.7457 11.8864C95.3442 11.4697 95.1454 10.9432 95.1491 10.3068C95.1454 9.76894 95.2912 9.30303 95.5866 8.90909C95.8859 8.51136 96.3007 8.20455 96.831 7.98864C97.3651 7.76894 97.9806 7.65909 98.6776 7.65909C99.7003 7.65909 100.505 7.87689 101.092 8.3125C101.683 8.74811 102.049 9.33712 102.189 10.0795Z" fill="white"/>
<g clip-path="url(#clip0_11_11824)">
<path d="M122 22C128.075 22 133 17.0751 133 11C133 4.92487 128.075 0 122 0C115.925 0 111 4.92487 111 11C111 17.0751 115.925 22 122 22Z" fill="#D95B29"/>
<path fill-rule="evenodd" clip-rule="evenodd" d="M122.278 10.9998L119.221 7.94228L120.534 6.62915L124.904 10.9998L120.534 15.3705L119.221 14.0574L122.278 10.9998Z" fill="white"/>
</g>
<defs>
<clipPath id="clip0_11_11824">
<rect width="22" height="22" fill="white" transform="translate(111)"/>
</clipPath>
</defs>
</svg>
